<?xml version="1.0" encoding="utf-8" standalone="no"?>
<!DOCTYPE svg PUBLIC "-//W3C//DTD SVG 1.1//EN"
  "http://www.w3.org/Graphics/SVG/1.1/DTD/svg11.dtd">
<svg xmlns:xlink="http://www.w3.org/1999/xlink" width="1440pt" height="432pt" viewBox="0 0 1440 432" xmlns="http://www.w3.org/2000/svg" version="1.1">
 <metadata>
  <rdf:RDF xmlns:dc="http://purl.org/dc/elements/1.1/" xmlns:cc="http://creativecommons.org/ns#" xmlns:rdf="http://www.w3.org/1999/02/22-rdf-syntax-ns#">
   <cc:Work>
    <dc:type rdf:resource="http://purl.org/dc/dcmitype/StillImage"/>
    <dc:date>2025-01-16T12:18:51.046168</dc:date>
    <dc:format>image/svg+xml</dc:format>
    <dc:creator>
     <cc:Agent>
      <dc:title>Matplotlib v3.9.3, https://matplotlib.org/</dc:title>
     </cc:Agent>
    </dc:creator>
   </cc:Work>
  </rdf:RDF>
 </metadata>
 <defs>
  <style type="text/css">*{stroke-linejoin: round; stroke-linecap: butt}</style>
 </defs>
 <g id="figure_1">
  <g id="patch_1">
   <path d="M 0 432 
L 1440 432 
L 1440 0 
L 0 0 
z
" style="fill: #ffffff"/>
  </g>
  <g id="axes_1">
   <g id="patch_2">
    <path d="M 180 384.48 
L 1296 384.48 
L 1296 51.84 
L 180 51.84 
z
" style="fill: #ffffff"/>
   </g>
   <g id="PolyCollection_1">
    <defs>
     <path id="m5436eb6b90" d="M 669.162609 -47.52 
L 669.162609 -143.366218 
L 669.567577 -143.975073 
L 669.972546 -144.590877 
L 670.377514 -145.215577 
L 670.782762 -145.851635 
L 671.18773 -146.49718 
L 671.592699 -147.151269 
L 671.997668 -147.817328 
L 672.402915 -148.49236 
L 672.807884 -149.176038 
L 673.212852 -149.872368 
L 673.617821 -150.57925 
L 674.023068 -151.294922 
L 674.428036 -152.019629 
L 674.833005 -152.752629 
L 675.237973 -153.498065 
L 675.643221 -154.209755 
L 676.04819 -154.96202 
L 676.453158 -155.741599 
L 676.858126 -156.530836 
L 677.263234 -157.332951 
L 677.668203 -158.144541 
L 678.073172 -158.963146 
L 678.47814 -159.797337 
L 678.883388 -160.645222 
L 679.288356 -161.501323 
L 679.693325 -162.369807 
L 680.098293 -163.253038 
L 680.50354 -164.148954 
L 680.908509 -165.052948 
L 681.313477 -165.972214 
L 681.718446 -166.898173 
L 682.123694 -167.835492 
L 682.528662 -168.784717 
L 682.933631 -169.712108 
L 683.338599 -170.637474 
L 683.743847 -171.621338 
L 684.148815 -172.617226 
L 684.553784 -173.623099 
L 684.958752 -174.643018 
L 685.363999 -175.676879 
L 685.768968 -176.720863 
L 686.173936 -177.775539 
L 686.578905 -178.842308 
L 686.983873 -179.922273 
L 687.388982 -181.017556 
L 687.79395 -182.124158 
L 688.198919 -183.235351 
L 688.603887 -184.356032 
L 689.009135 -185.486425 
L 689.414103 -186.625351 
L 689.819072 -187.775032 
L 690.22404 -188.924713 
L 690.629287 -190.021815 
L 691.034256 -191.199173 
L 691.439224 -192.393778 
L 691.844193 -193.598652 
L 692.24944 -194.814953 
L 692.654409 -196.041752 
L 693.059377 -197.279573 
L 693.464346 -198.527736 
L 693.869594 -199.785169 
L 694.274562 -201.052467 
L 694.679531 -202.338388 
L 695.084499 -203.640635 
L 695.489746 -204.949971 
L 695.894715 -206.264341 
L 696.299683 -207.592416 
L 696.704652 -208.930679 
L 697.109899 -210.275814 
L 697.514868 -211.627736 
L 697.919837 -212.917 
L 698.324805 -214.244356 
L 698.729913 -215.621933 
L 699.134882 -217.008311 
L 699.53985 -218.400637 
L 699.944819 -219.805936 
L 700.350066 -221.216281 
L 700.755034 -222.629422 
L 701.160003 -224.051105 
L 701.564971 -225.478744 
L 701.96994 -226.907936 
L 702.375187 -228.341547 
L 702.780156 -229.7867 
L 703.185125 -231.239362 
L 703.590093 -232.698608 
L 703.995341 -234.163167 
L 704.400309 -235.62635 
L 704.805278 -237.095985 
L 705.210246 -238.530899 
L 705.615493 -239.929067 
L 706.020462 -241.41204 
L 706.42543 -242.902762 
L 706.830399 -244.397203 
L 707.235647 -245.896272 
L 707.640615 -247.400459 
L 708.045583 -248.908325 
L 708.450552 -250.417633 
L 708.85566 -251.929371 
L 709.260629 -253.438659 
L 709.665597 -254.958037 
L 710.070566 -256.479693 
L 710.475813 -258.007611 
L 710.880782 -259.533914 
L 711.28575 -261.060629 
L 711.690719 -262.587104 
L 712.095966 -264.109127 
L 712.500934 -265.622328 
L 712.905903 -267.043924 
L 713.310871 -268.543249 
L 713.716119 -270.060154 
L 714.121088 -271.575702 
L 714.526056 -273.091935 
L 714.931025 -274.60856 
L 715.336272 -276.122859 
L 715.741241 -277.632423 
L 716.146209 -279.14126 
L 716.551177 -280.640608 
L 716.956425 -282.142149 
L 717.361393 -283.638463 
L 717.766362 -285.127138 
L 718.17133 -286.610136 
L 718.576299 -288.086784 
L 718.981547 -289.556357 
L 719.386515 -291.014052 
L 719.791483 -292.462284 
L 720.196313 -293.840722 
L 720.60156 -295.225916 
L 721.006529 -296.656958 
L 721.411497 -298.086878 
L 721.816466 -299.508022 
L 722.221713 -300.926284 
L 722.626681 -302.335724 
L 723.03165 -303.732019 
L 723.436618 -305.121152 
L 723.841866 -306.506518 
L 724.246834 -307.88429 
L 724.651803 -309.254209 
L 725.056771 -310.622108 
L 725.462019 -311.973997 
L 725.866988 -313.316616 
L 726.271956 -314.646177 
L 726.676925 -315.960482 
L 727.082172 -317.259622 
L 727.48714 -318.518119 
L 727.892109 -319.715521 
L 728.297077 -320.976902 
L 728.702325 -322.224041 
L 729.107294 -323.456917 
L 729.512262 -324.676153 
L 729.917231 -325.87964 
L 730.322339 -327.06923 
L 730.727307 -328.246278 
L 731.132276 -329.410803 
L 731.537244 -330.560594 
L 731.942491 -331.698593 
L 732.34746 -332.81439 
L 732.752428 -333.917667 
L 733.157397 -335.003732 
L 733.562644 -336.070585 
L 733.967613 -337.118765 
L 734.372582 -338.145108 
L 734.77755 -339.150451 
L 735.182519 -340.081854 
L 735.587766 -341.041092 
L 735.992735 -342.00453 
L 736.397703 -342.953078 
L 736.802672 -343.883942 
L 737.207919 -344.797251 
L 737.612887 -345.688355 
L 738.017856 -346.566683 
L 738.422824 -347.422356 
L 738.828072 -348.259398 
L 739.23304 -349.079292 
L 739.638009 -349.883116 
L 740.042978 -350.670827 
L 740.448225 -351.442034 
L 740.853054 -352.187514 
L 741.258022 -352.90937 
L 741.662991 -353.610551 
L 742.068239 -354.285656 
L 742.473207 -354.914465 
L 742.878175 -355.518684 
L 743.283144 -356.12501 
L 743.688391 -356.71619 
L 744.09336 -357.285017 
L 744.498328 -357.831342 
L 744.903297 -358.358669 
L 745.308545 -358.864568 
L 745.713513 -359.348461 
L 746.118482 -359.811805 
L 746.52345 -360.254604 
L 746.928698 -360.675633 
L 747.333666 -361.07566 
L 747.738634 -361.451746 
L 748.143603 -361.801799 
L 748.54885 -362.130015 
L 748.953819 -362.435274 
L 749.358787 -362.71586 
L 749.763756 -362.969056 
L 750.169004 -363.18994 
L 750.573972 -363.400347 
L 750.978941 -363.587733 
L 751.383909 -363.75952 
L 751.788878 -363.906331 
L 752.193986 -364.030165 
L 752.598954 -364.136099 
L 753.003923 -364.215831 
L 753.408891 -364.272327 
L 753.814138 -364.306146 
L 754.219107 -364.32 
L 754.624075 -364.314278 
L 755.029044 -364.288011 
L 755.434292 -364.239775 
L 755.83926 -364.169833 
L 756.244229 -364.079583 
L 756.649197 -363.962505 
L 757.054445 -363.815198 
L 757.459413 -363.655909 
L 757.864382 -363.471492 
L 758.26935 -363.260763 
L 758.674597 -363.028995 
L 759.079566 -362.777195 
L 759.484534 -362.501237 
L 759.889503 -362.204344 
L 760.29475 -361.880045 
L 760.699719 -361.534876 
L 761.104687 -361.173721 
L 761.509656 -360.790988 
L 761.914764 -360.38216 
L 762.319733 -359.952398 
L 762.724701 -359.505017 
L 763.129669 -359.034056 
L 763.534917 -358.533665 
L 763.939885 -358.014704 
L 764.344854 -357.474578 
L 764.749822 -356.928749 
L 765.15507 -356.374484 
L 765.560038 -355.779282 
L 765.965007 -355.163124 
L 766.369975 -354.523385 
L 766.775223 -353.866372 
L 767.180192 -353.189781 
L 767.58516 -352.494085 
L 767.990129 -351.781523 
L 768.395097 -351.052719 
L 768.800344 -350.305885 
L 769.205313 -349.543539 
L 769.610282 -348.760455 
L 770.01525 -347.962462 
L 770.420497 -347.145944 
L 770.825466 -346.309012 
L 771.230434 -345.453144 
L 771.635403 -344.580541 
L 772.040651 -343.691799 
L 772.445619 -342.833932 
L 772.850588 -341.918022 
L 773.255556 -340.978466 
L 773.660664 -340.018387 
L 774.065632 -339.042171 
L 774.470601 -338.051155 
L 774.87557 -337.043787 
L 775.280817 -336.022825 
L 775.685785 -334.980539 
L 776.090754 -333.924638 
L 776.495722 -332.86325 
L 776.90097 -331.786759 
L 777.305939 -330.696109 
L 777.710907 -329.593587 
L 778.115876 -328.476651 
L 778.521123 -327.343297 
L 778.926091 -326.188365 
L 779.33106 -325.024161 
L 779.736028 -323.89367 
L 780.141276 -322.744268 
L 780.546245 -321.55442 
L 780.951213 -320.342048 
L 781.356182 -319.122144 
L 781.761429 -317.890472 
L 782.166397 -316.646841 
L 782.571366 -315.389179 
L 782.976334 -314.122205 
L 783.381303 -312.843763 
L 783.786411 -311.555703 
L 784.19138 -310.264783 
L 784.596348 -308.963083 
L 785.001317 -307.652886 
L 785.406564 -306.335225 
L 785.811533 -305.008527 
L 786.216501 -303.67047 
L 786.62147 -302.322645 
L 787.026717 -300.99102 
L 787.431685 -299.689774 
L 787.836654 -298.329663 
L 788.241622 -296.950943 
L 788.64687 -295.558178 
L 789.051839 -294.161516 
L 789.456807 -292.759476 
L 789.861776 -291.350962 
L 790.267023 -289.935218 
L 790.671991 -288.515492 
L 791.07696 -287.097339 
L 791.481928 -285.65894 
L 791.887176 -284.223208 
L 792.292145 -282.785822 
L 792.697113 -281.344349 
L 793.102082 -279.897603 
L 793.507329 -278.444402 
L 793.912297 -276.988514 
L 794.317266 -275.528881 
L 794.722095 -274.142029 
L 795.127342 -272.711484 
L 795.532311 -271.256326 
L 795.937279 -269.788262 
L 796.342248 -268.314967 
L 796.747496 -266.839176 
L 797.152464 -265.360204 
L 797.557433 -263.881509 
L 797.962401 -262.400321 
L 798.367648 -260.920594 
L 798.772617 -259.440588 
L 799.177585 -257.958537 
L 799.582554 -256.478488 
L 799.987523 -255.002591 
L 800.39277 -253.520498 
L 800.797738 -252.040579 
L 801.202707 -250.556182 
L 801.607675 -249.072391 
L 802.012923 -247.637221 
L 802.417892 -246.210459 
L 802.82286 -244.747688 
L 803.227829 -243.269015 
L 803.633076 -241.786104 
L 804.038045 -240.30911 
L 804.443013 -238.83132 
L 804.847982 -237.358606 
L 805.253089 -235.888367 
L 805.658058 -234.422689 
L 806.063026 -232.962153 
L 806.467995 -231.504974 
L 806.873243 -230.04831 
L 807.278211 -228.59042 
L 807.68318 -227.138683 
L 808.088148 -225.68857 
L 808.493396 -224.242783 
L 808.898364 -222.802351 
L 809.303333 -221.382571 
L 809.708301 -220.021679 
L 810.113548 -218.622188 
L 810.518517 -217.204346 
L 810.923485 -215.784341 
L 811.328454 -214.366219 
L 811.733701 -212.951101 
L 812.13867 -211.541972 
L 812.543638 -210.138974 
L 812.948607 -208.746389 
L 813.353855 -207.353494 
L 813.758823 -205.969214 
L 814.163792 -204.591281 
L 814.56876 -203.21839 
L 814.974007 -201.853711 
L 815.378976 -200.496516 
L 815.783805 -199.137214 
L 816.188774 -197.786507 
L 816.593742 -196.445675 
L 816.998989 -195.164918 
L 817.403958 -193.873869 
L 817.808926 -192.564868 
L 818.213895 -191.248194 
L 818.619143 -189.93236 
L 819.024111 -188.61986 
L 819.42908 -187.317559 
L 819.834048 -186.02623 
L 820.239296 -184.742087 
L 820.644264 -183.468055 
L 821.049233 -182.203639 
L 821.454201 -180.948464 
L 821.859448 -179.699938 
L 822.264417 -178.456132 
L 822.669385 -177.2176 
L 823.074354 -175.987282 
L 823.479601 -174.764766 
L 823.88457 -173.555188 
L 824.289539 -172.384705 
L 824.694507 -171.2401 
L 825.099755 -170.079446 
L 825.504723 -168.905658 
L 825.909692 -167.738669 
L 826.31466 -166.574164 
L 826.719768 -165.413293 
L 827.124736 -164.261419 
L 827.529705 -163.116974 
L 827.934673 -161.980569 
L 828.339921 -160.855832 
L 828.744889 -159.737463 
L 829.149858 -158.626474 
L 829.554827 -157.531986 
L 829.960074 -156.442458 
L 830.365043 -155.362329 
L 830.770011 -154.290229 
L 831.17498 -153.224278 
L 831.580227 -152.172475 
L 831.985196 -151.167129 
L 832.390164 -150.157589 
L 832.795133 -149.134033 
L 833.200101 -148.114435 
L 833.605348 -147.101667 
L 834.010317 -146.095805 
L 834.415285 -145.099271 
L 834.820254 -144.11658 
L 835.225502 -143.139506 
L 835.63047 -142.170508 
L 836.035439 -141.213602 
L 836.440407 -140.263021 
L 836.845515 -139.321895 
L 837.250484 -138.392654 
L 837.655452 -137.47052 
L 838.06042 -136.556681 
L 838.465668 -135.650262 
L 838.870636 -134.756586 
L 839.275605 -133.896545 
L 839.680573 -133.048483 
L 840.085821 -132.194293 
L 840.49079 -131.332259 
L 840.895758 -130.477333 
L 841.300727 -129.630504 
L 841.705974 -128.791107 
L 842.110942 -127.958701 
L 842.515911 -127.13317 
L 842.920879 -126.319079 
L 842.920879 -47.52 
L 842.920879 -47.52 
L 842.515911 -47.52 
L 842.110942 -47.52 
L 841.705974 -47.52 
L 841.300727 -47.52 
L 840.895758 -47.52 
L 840.49079 -47.52 
L 840.085821 -47.52 
L 839.680573 -47.52 
L 839.275605 -47.52 
L 838.870636 -47.52 
L 838.465668 -47.52 
L 838.06042 -47.52 
L 837.655452 -47.52 
L 837.250484 -47.52 
L 836.845515 -47.52 
L 836.440407 -47.52 
L 836.035439 -47.52 
L 835.63047 -47.52 
L 835.225502 -47.52 
L 834.820254 -47.52 
L 834.415285 -47.52 
L 834.010317 -47.52 
L 833.605348 -47.52 
L 833.200101 -47.52 
L 832.795133 -47.52 
L 832.390164 -47.52 
L 831.985196 -47.52 
L 831.580227 -47.52 
L 831.17498 -47.52 
L 830.770011 -47.52 
L 830.365043 -47.52 
L 829.960074 -47.52 
L 829.554827 -47.52 
L 829.149858 -47.52 
L 828.744889 -47.52 
L 828.339921 -47.52 
L 827.934673 -47.52 
L 827.529705 -47.52 
L 827.124736 -47.52 
L 826.719768 -47.52 
L 826.31466 -47.52 
L 825.909692 -47.52 
L 825.504723 -47.52 
L 825.099755 -47.52 
L 824.694507 -47.52 
L 824.289539 -47.52 
L 823.88457 -47.52 
L 823.479601 -47.52 
L 823.074354 -47.52 
L 822.669385 -47.52 
L 822.264417 -47.52 
L 821.859448 -47.52 
L 821.454201 -47.52 
L 821.049233 -47.52 
L 820.644264 -47.52 
L 820.239296 -47.52 
L 819.834048 -47.52 
L 819.42908 -47.52 
L 819.024111 -47.52 
L 818.619143 -47.52 
L 818.213895 -47.52 
L 817.808926 -47.52 
L 817.403958 -47.52 
L 816.998989 -47.52 
L 816.593742 -47.52 
L 816.188774 -47.52 
L 815.783805 -47.52 
L 815.378976 -47.52 
L 814.974007 -47.52 
L 814.56876 -47.52 
L 814.163792 -47.52 
L 813.758823 -47.52 
L 813.353855 -47.52 
L 812.948607 -47.52 
L 812.543638 -47.52 
L 812.13867 -47.52 
L 811.733701 -47.52 
L 811.328454 -47.52 
L 810.923485 -47.52 
L 810.518517 -47.52 
L 810.113548 -47.52 
L 809.708301 -47.52 
L 809.303333 -47.52 
L 808.898364 -47.52 
L 808.493396 -47.52 
L 808.088148 -47.52 
L 807.68318 -47.52 
L 807.278211 -47.52 
L 806.873243 -47.52 
L 806.467995 -47.52 
L 806.063026 -47.52 
L 805.658058 -47.52 
L 805.253089 -47.52 
L 804.847982 -47.52 
L 804.443013 -47.52 
L 804.038045 -47.52 
L 803.633076 -47.52 
L 803.227829 -47.52 
L 802.82286 -47.52 
L 802.417892 -47.52 
L 802.012923 -47.52 
L 801.607675 -47.52 
L 801.202707 -47.52 
L 800.797738 -47.52 
L 800.39277 -47.52 
L 799.987523 -47.52 
L 799.582554 -47.52 
L 799.177585 -47.52 
L 798.772617 -47.52 
L 798.367648 -47.52 
L 797.962401 -47.52 
L 797.557433 -47.52 
L 797.152464 -47.52 
L 796.747496 -47.52 
L 796.342248 -47.52 
L 795.937279 -47.52 
L 795.532311 -47.52 
L 795.127342 -47.52 
L 794.722095 -47.52 
L 794.317266 -47.52 
L 793.912297 -47.52 
L 793.507329 -47.52 
L 793.102082 -47.52 
L 792.697113 -47.52 
L 792.292145 -47.52 
L 791.887176 -47.52 
L 791.481928 -47.52 
L 791.07696 -47.52 
L 790.671991 -47.52 
L 790.267023 -47.52 
L 789.861776 -47.52 
L 789.456807 -47.52 
L 789.051839 -47.52 
L 788.64687 -47.52 
L 788.241622 -47.52 
L 787.836654 -47.52 
L 787.431685 -47.52 
L 787.026717 -47.52 
L 786.62147 -47.52 
L 786.216501 -47.52 
L 785.811533 -47.52 
L 785.406564 -47.52 
L 785.001317 -47.52 
L 784.596348 -47.52 
L 784.19138 -47.52 
L 783.786411 -47.52 
L 783.381303 -47.52 
L 782.976334 -47.52 
L 782.571366 -47.52 
L 782.166397 -47.52 
L 781.761429 -47.52 
L 781.356182 -47.52 
L 780.951213 -47.52 
L 780.546245 -47.52 
L 780.141276 -47.52 
L 779.736028 -47.52 
L 779.33106 -47.52 
L 778.926091 -47.52 
L 778.521123 -47.52 
L 778.115876 -47.52 
L 777.710907 -47.52 
L 777.305939 -47.52 
L 776.90097 -47.52 
L 776.495722 -47.52 
L 776.090754 -47.52 
L 775.685785 -47.52 
L 775.280817 -47.52 
L 774.87557 -47.52 
L 774.470601 -47.52 
L 774.065632 -47.52 
L 773.660664 -47.52 
L 773.255556 -47.52 
L 772.850588 -47.52 
L 772.445619 -47.52 
L 772.040651 -47.52 
L 771.635403 -47.52 
L 771.230434 -47.52 
L 770.825466 -47.52 
L 770.420497 -47.52 
L 770.01525 -47.52 
L 769.610282 -47.52 
L 769.205313 -47.52 
L 768.800344 -47.52 
L 768.395097 -47.52 
L 767.990129 -47.52 
L 767.58516 -47.52 
L 767.180192 -47.52 
L 766.775223 -47.52 
L 766.369975 -47.52 
L 765.965007 -47.52 
L 765.560038 -47.52 
L 765.15507 -47.52 
L 764.749822 -47.52 
L 764.344854 -47.52 
L 763.939885 -47.52 
L 763.534917 -47.52 
L 763.129669 -47.52 
L 762.724701 -47.52 
L 762.319733 -47.52 
L 761.914764 -47.52 
L 761.509656 -47.52 
L 761.104687 -47.52 
L 760.699719 -47.52 
L 760.29475 -47.52 
L 759.889503 -47.52 
L 759.484534 -47.52 
L 759.079566 -47.52 
L 758.674597 -47.52 
L 758.26935 -47.52 
L 757.864382 -47.52 
L 757.459413 -47.52 
L 757.054445 -47.52 
L 756.649197 -47.52 
L 756.244229 -47.52 
L 755.83926 -47.52 
L 755.434292 -47.52 
L 755.029044 -47.52 
L 754.624075 -47.52 
L 754.219107 -47.52 
L 753.814138 -47.52 
L 753.408891 -47.52 
L 753.003923 -47.52 
L 752.598954 -47.52 
L 752.193986 -47.52 
L 751.788878 -47.52 
L 751.383909 -47.52 
L 750.978941 -47.52 
L 750.573972 -47.52 
L 750.169004 -47.52 
L 749.763756 -47.52 
L 749.358787 -47.52 
L 748.953819 -47.52 
L 748.54885 -47.52 
L 748.143603 -47.52 
L 747.738634 -47.52 
L 747.333666 -47.52 
L 746.928698 -47.52 
L 746.52345 -47.52 
L 746.118482 -47.52 
L 745.713513 -47.52 
L 745.308545 -47.52 
L 744.903297 -47.52 
L 744.498328 -47.52 
L 744.09336 -47.52 
L 743.688391 -47.52 
L 743.283144 -47.52 
L 742.878175 -47.52 
L 742.473207 -47.52 
L 742.068239 -47.52 
L 741.662991 -47.52 
L 741.258022 -47.52 
L 740.853054 -47.52 
L 740.448225 -47.52 
L 740.042978 -47.52 
L 739.638009 -47.52 
L 739.23304 -47.52 
L 738.828072 -47.52 
L 738.422824 -47.52 
L 738.017856 -47.52 
L 737.612887 -47.52 
L 737.207919 -47.52 
L 736.802672 -47.52 
L 736.397703 -47.52 
L 735.992735 -47.52 
L 735.587766 -47.52 
L 735.182519 -47.52 
L 734.77755 -47.52 
L 734.372582 -47.52 
L 733.967613 -47.52 
L 733.562644 -47.52 
L 733.157397 -47.52 
L 732.752428 -47.52 
L 732.34746 -47.52 
L 731.942491 -47.52 
L 731.537244 -47.52 
L 731.132276 -47.52 
L 730.727307 -47.52 
L 730.322339 -47.52 
L 729.917231 -47.52 
L 729.512262 -47.52 
L 729.107294 -47.52 
L 728.702325 -47.52 
L 728.297077 -47.52 
L 727.892109 -47.52 
L 727.48714 -47.52 
L 727.082172 -47.52 
L 726.676925 -47.52 
L 726.271956 -47.52 
L 725.866988 -47.52 
L 725.462019 -47.52 
L 725.056771 -47.52 
L 724.651803 -47.52 
L 724.246834 -47.52 
L 723.841866 -47.52 
L 723.436618 -47.52 
L 723.03165 -47.52 
L 722.626681 -47.52 
L 722.221713 -47.52 
L 721.816466 -47.52 
L 721.411497 -47.52 
L 721.006529 -47.52 
L 720.60156 -47.52 
L 720.196313 -47.52 
L 719.791483 -47.52 
L 719.386515 -47.52 
L 718.981547 -47.52 
L 718.576299 -47.52 
L 718.17133 -47.52 
L 717.766362 -47.52 
L 717.361393 -47.52 
L 716.956425 -47.52 
L 716.551177 -47.52 
L 716.146209 -47.52 
L 715.741241 -47.52 
L 715.336272 -47.52 
L 714.931025 -47.52 
L 714.526056 -47.52 
L 714.121088 -47.52 
L 713.716119 -47.52 
L 713.310871 -47.52 
L 712.905903 -47.52 
L 712.500934 -47.52 
L 712.095966 -47.52 
L 711.690719 -47.52 
L 711.28575 -47.52 
L 710.880782 -47.52 
L 710.475813 -47.52 
L 710.070566 -47.52 
L 709.665597 -47.52 
L 709.260629 -47.52 
L 708.85566 -47.52 
L 708.450552 -47.52 
L 708.045583 -47.52 
L 707.640615 -47.52 
L 707.235647 -47.52 
L 706.830399 -47.52 
L 706.42543 -47.52 
L 706.020462 -47.52 
L 705.615493 -47.52 
L 705.210246 -47.52 
L 704.805278 -47.52 
L 704.400309 -47.52 
L 703.995341 -47.52 
L 703.590093 -47.52 
L 703.185125 -47.52 
L 702.780156 -47.52 
L 702.375187 -47.52 
L 701.96994 -47.52 
L 701.564971 -47.52 
L 701.160003 -47.52 
L 700.755034 -47.52 
L 700.350066 -47.52 
L 699.944819 -47.52 
L 699.53985 -47.52 
L 699.134882 -47.52 
L 698.729913 -47.52 
L 698.324805 -47.52 
L 697.919837 -47.52 
L 697.514868 -47.52 
L 697.109899 -47.52 
L 696.704652 -47.52 
L 696.299683 -47.52 
L 695.894715 -47.52 
L 695.489746 -47.52 
L 695.084499 -47.52 
L 694.679531 -47.52 
L 694.274562 -47.52 
L 693.869594 -47.52 
L 693.464346 -47.52 
L 693.059377 -47.52 
L 692.654409 -47.52 
L 692.24944 -47.52 
L 691.844193 -47.52 
L 691.439224 -47.52 
L 691.034256 -47.52 
L 690.629287 -47.52 
L 690.22404 -47.52 
L 689.819072 -47.52 
L 689.414103 -47.52 
L 689.009135 -47.52 
L 688.603887 -47.52 
L 688.198919 -47.52 
L 687.79395 -47.52 
L 687.388982 -47.52 
L 686.983873 -47.52 
L 686.578905 -47.52 
L 686.173936 -47.52 
L 685.768968 -47.52 
L 685.363999 -47.52 
L 684.958752 -47.52 
L 684.553784 -47.52 
L 684.148815 -47.52 
L 683.743847 -47.52 
L 683.338599 -47.52 
L 682.933631 -47.52 
L 682.528662 -47.52 
L 682.123694 -47.52 
L 681.718446 -47.52 
L 681.313477 -47.52 
L 680.908509 -47.52 
L 680.50354 -47.52 
L 680.098293 -47.52 
L 679.693325 -47.52 
L 679.288356 -47.52 
L 678.883388 -47.52 
L 678.47814 -47.52 
L 678.073172 -47.52 
L 677.668203 -47.52 
L 677.263234 -47.52 
L 676.858126 -47.52 
L 676.453158 -47.52 
L 676.04819 -47.52 
L 675.643221 -47.52 
L 675.237973 -47.52 
L 674.833005 -47.52 
L 674.428036 -47.52 
L 674.023068 -47.52 
L 673.617821 -47.52 
L 673.212852 -47.52 
L 672.807884 -47.52 
L 672.402915 -47.52 
L 671.997668 -47.52 
L 671.592699 -47.52 
L 671.18773 -47.52 
L 670.782762 -47.52 
L 670.377514 -47.52 
L 669.972546 -47.52 
L 669.567577 -47.52 
L 669.162609 -47.52 
z
" style="stroke: #ffcf8d; stroke-opacity: 0.6"/>
    </defs>
    <g clip-path="url(#pfc97e3e212)">
     <use xlink:href="#m5436eb6b90" x="0" y="432" style="fill: #ffcf8d; fill-opacity: 0.6; stroke: #ffcf8d; stroke-opacity: 0.6"/>
    </g>
   </g>
   <g id="matplotlib.axis_1">
    <g id="xtick_1">
     <g id="line2d_1">
      <defs>
       <path id="m3558c71b3e" d="M 0 0 
L 0 3.5 
" style="stroke: #000000; stroke-width: 0.8"/>
      </defs>
      <g>
       <use xlink:href="#m3558c71b3e" x="180" y="384.48" style="stroke: #000000; stroke-width: 0.8"/>
      </g>
     </g>
     <g id="text_1">
      <!-- 12 -->
      <g transform="translate(173.6375 399.078438) scale(0.1 -0.1)">
       <defs>
        <path id="DejaVuSans-31" d="M 794 531 
L 1825 531 
L 1825 4091 
L 703 3866 
L 703 4441 
L 1819 4666 
L 2450 4666 
L 2450 531 
L 3481 531 
L 3481 0 
L 794 0 
L 794 531 
z
" transform="scale(0.015625)"/>
        <path id="DejaVuSans-32" d="M 1228 531 
L 3431 531 
L 3431 0 
L 469 0 
L 469 531 
Q 828 903 1448 1529 
Q 2069 2156 2228 2338 
Q 2531 2678 2651 2914 
Q 2772 3150 2772 3378 
Q 2772 3750 2511 3984 
Q 2250 4219 1831 4219 
Q 1534 4219 1204 4116 
Q 875 4013 500 3803 
L 500 4441 
Q 881 4594 1212 4672 
Q 1544 4750 1819 4750 
Q 2544 4750 2975 4387 
Q 3406 4025 3406 3419 
Q 3406 3131 3298 2873 
Q 3191 2616 2906 2266 
Q 2828 2175 2409 1742 
Q 1991 1309 1228 531 
z
" transform="scale(0.015625)"/>
       </defs>
       <use xlink:href="#DejaVuSans-31"/>
       <use xlink:href="#DejaVuSans-32" x="63.623047"/>
      </g>
     </g>
    </g>
    <g id="xtick_2">
     <g id="line2d_2">
      <g>
       <use xlink:href="#m3558c71b3e" x="319.5" y="384.48" style="stroke: #000000; stroke-width: 0.8"/>
      </g>
     </g>
     <g id="text_2">
      <!-- 13 -->
      <g transform="translate(313.1375 399.078438) scale(0.1 -0.1)">
       <defs>
        <path id="DejaVuSans-33" d="M 2597 2516 
Q 3050 2419 3304 2112 
Q 3559 1806 3559 1356 
Q 3559 666 3084 287 
Q 2609 -91 1734 -91 
Q 1441 -91 1130 -33 
Q 819 25 488 141 
L 488 750 
Q 750 597 1062 519 
Q 1375 441 1716 441 
Q 2309 441 2620 675 
Q 2931 909 2931 1356 
Q 2931 1769 2642 2001 
Q 2353 2234 1838 2234 
L 1294 2234 
L 1294 2753 
L 1863 2753 
Q 2328 2753 2575 2939 
Q 2822 3125 2822 3475 
Q 2822 3834 2567 4026 
Q 2313 4219 1838 4219 
Q 1578 4219 1281 4162 
Q 984 4106 628 3988 
L 628 4550 
Q 988 4650 1302 4700 
Q 1616 4750 1894 4750 
Q 2613 4750 3031 4423 
Q 3450 4097 3450 3541 
Q 3450 3153 3228 2886 
Q 3006 2619 2597 2516 
z
" transform="scale(0.015625)"/>
       </defs>
       <use xlink:href="#DejaVuSans-31"/>
       <use xlink:href="#DejaVuSans-33" x="63.623047"/>
      </g>
     </g>
    </g>
    <g id="xtick_3">
     <g id="line2d_3">
      <g>
       <use xlink:href="#m3558c71b3e" x="459" y="384.48" style="stroke: #000000; stroke-width: 0.8"/>
      </g>
     </g>
     <g id="text_3">
      <!-- 14 -->
      <g transform="translate(452.6375 399.078438) scale(0.1 -0.1)">
       <defs>
        <path id="DejaVuSans-34" d="M 2419 4116 
L 825 1625 
L 2419 1625 
L 2419 4116 
z
M 2253 4666 
L 3047 4666 
L 3047 1625 
L 3713 1625 
L 3713 1100 
L 3047 1100 
L 3047 0 
L 2419 0 
L 2419 1100 
L 313 1100 
L 313 1709 
L 2253 4666 
z
" transform="scale(0.015625)"/>
       </defs>
       <use xlink:href="#DejaVuSans-31"/>
       <use xlink:href="#DejaVuSans-34" x="63.623047"/>
      </g>
     </g>
    </g>
    <g id="xtick_4">
     <g id="line2d_4">
      <g>
       <use xlink:href="#m3558c71b3e" x="598.5" y="384.48" style="stroke: #000000; stroke-width: 0.8"/>
      </g>
     </g>
     <g id="text_4">
      <!-- 15 -->
      <g transform="translate(592.1375 399.078438) scale(0.1 -0.1)">
       <defs>
        <path id="DejaVuSans-35" d="M 691 4666 
L 3169 4666 
L 3169 4134 
L 1269 4134 
L 1269 2991 
Q 1406 3038 1543 3061 
Q 1681 3084 1819 3084 
Q 2600 3084 3056 2656 
Q 3513 2228 3513 1497 
Q 3513 744 3044 326 
Q 2575 -91 1722 -91 
Q 1428 -91 1123 -41 
Q 819 9 494 109 
L 494 744 
Q 775 591 1075 516 
Q 1375 441 1709 441 
Q 2250 441 2565 725 
Q 2881 1009 2881 1497 
Q 2881 1984 2565 2268 
Q 2250 2553 1709 2553 
Q 1456 2553 1204 2497 
Q 953 2441 691 2322 
L 691 4666 
z
" transform="scale(0.015625)"/>
       </defs>
       <use xlink:href="#DejaVuSans-31"/>
       <use xlink:href="#DejaVuSans-35" x="63.623047"/>
      </g>
     </g>
    </g>
    <g id="xtick_5">
     <g id="line2d_5">
      <g>
       <use xlink:href="#m3558c71b3e" x="738" y="384.48" style="stroke: #000000; stroke-width: 0.8"/>
      </g>
     </g>
     <g id="text_5">
      <!-- 16 -->
      <g transform="translate(731.6375 399.078438) scale(0.1 -0.1)">
       <defs>
        <path id="DejaVuSans-36" d="M 2113 2584 
Q 1688 2584 1439 2293 
Q 1191 2003 1191 1497 
Q 1191 994 1439 701 
Q 1688 409 2113 409 
Q 2538 409 2786 701 
Q 3034 994 3034 1497 
Q 3034 2003 2786 2293 
Q 2538 2584 2113 2584 
z
M 3366 4563 
L 3366 3988 
Q 3128 4100 2886 4159 
Q 2644 4219 2406 4219 
Q 1781 4219 1451 3797 
Q 1122 3375 1075 2522 
Q 1259 2794 1537 2939 
Q 1816 3084 2150 3084 
Q 2853 3084 3261 2657 
Q 3669 2231 3669 1497 
Q 3669 778 3244 343 
Q 2819 -91 2113 -91 
Q 1303 -91 875 529 
Q 447 1150 447 2328 
Q 447 3434 972 4092 
Q 1497 4750 2381 4750 
Q 2619 4750 2861 4703 
Q 3103 4656 3366 4563 
z
" transform="scale(0.015625)"/>
       </defs>
       <use xlink:href="#DejaVuSans-31"/>
       <use xlink:href="#DejaVuSans-36" x="63.623047"/>
      </g>
     </g>
    </g>
    <g id="xtick_6">
     <g id="line2d_6">
      <g>
       <use xlink:href="#m3558c71b3e" x="877.5" y="384.48" style="stroke: #000000; stroke-width: 0.8"/>
      </g>
     </g>
     <g id="text_6">
      <!-- 17 -->
      <g transform="translate(871.1375 399.078438) scale(0.1 -0.1)">
       <defs>
        <path id="DejaVuSans-37" d="M 525 4666 
L 3525 4666 
L 3525 4397 
L 1831 0 
L 1172 0 
L 2766 4134 
L 525 4134 
L 525 4666 
z
" transform="scale(0.015625)"/>
       </defs>
       <use xlink:href="#DejaVuSans-31"/>
       <use xlink:href="#DejaVuSans-37" x="63.623047"/>
      </g>
     </g>
    </g>
    <g id="xtick_7">
     <g id="line2d_7">
      <g>
       <use xlink:href="#m3558c71b3e" x="1017" y="384.48" style="stroke: #000000; stroke-width: 0.8"/>
      </g>
     </g>
     <g id="text_7">
      <!-- 18 -->
      <g transform="translate(1010.6375 399.078438) scale(0.1 -0.1)">
       <defs>
        <path id="DejaVuSans-38" d="M 2034 2216 
Q 1584 2216 1326 1975 
Q 1069 1734 1069 1313 
Q 1069 891 1326 650 
Q 1584 409 2034 409 
Q 2484 409 2743 651 
Q 3003 894 3003 1313 
Q 3003 1734 2745 1975 
Q 2488 2216 2034 2216 
z
M 1403 2484 
Q 997 2584 770 2862 
Q 544 3141 544 3541 
Q 544 4100 942 4425 
Q 1341 4750 2034 4750 
Q 2731 4750 3128 4425 
Q 3525 4100 3525 3541 
Q 3525 3141 3298 2862 
Q 3072 2584 2669 2484 
Q 3125 2378 3379 2068 
Q 3634 1759 3634 1313 
Q 3634 634 3220 271 
Q 2806 -91 2034 -91 
Q 1263 -91 848 271 
Q 434 634 434 1313 
Q 434 1759 690 2068 
Q 947 2378 1403 2484 
z
M 1172 3481 
Q 1172 3119 1398 2916 
Q 1625 2713 2034 2713 
Q 2441 2713 2670 2916 
Q 2900 3119 2900 3481 
Q 2900 3844 2670 4047 
Q 2441 4250 2034 4250 
Q 1625 4250 1398 4047 
Q 1172 3844 1172 3481 
z
" transform="scale(0.015625)"/>
       </defs>
       <use xlink:href="#DejaVuSans-31"/>
       <use xlink:href="#DejaVuSans-38" x="63.623047"/>
      </g>
     </g>
    </g>
    <g id="xtick_8">
     <g id="line2d_8">
      <g>
       <use xlink:href="#m3558c71b3e" x="1156.5" y="384.48" style="stroke: #000000; stroke-width: 0.8"/>
      </g>
     </g>
     <g id="text_8">
      <!-- 19 -->
      <g transform="translate(1150.1375 399.078438) scale(0.1 -0.1)">
       <defs>
        <path id="DejaVuSans-39" d="M 703 97 
L 703 672 
Q 941 559 1184 500 
Q 1428 441 1663 441 
Q 2288 441 2617 861 
Q 2947 1281 2994 2138 
Q 2813 1869 2534 1725 
Q 2256 1581 1919 1581 
Q 1219 1581 811 2004 
Q 403 2428 403 3163 
Q 403 3881 828 4315 
Q 1253 4750 1959 4750 
Q 2769 4750 3195 4129 
Q 3622 3509 3622 2328 
Q 3622 1225 3098 567 
Q 2575 -91 1691 -91 
Q 1453 -91 1209 -44 
Q 966 3 703 97 
z
M 1959 2075 
Q 2384 2075 2632 2365 
Q 2881 2656 2881 3163 
Q 2881 3666 2632 3958 
Q 2384 4250 1959 4250 
Q 1534 4250 1286 3958 
Q 1038 3666 1038 3163 
Q 1038 2656 1286 2365 
Q 1534 2075 1959 2075 
z
" transform="scale(0.015625)"/>
       </defs>
       <use xlink:href="#DejaVuSans-31"/>
       <use xlink:href="#DejaVuSans-39" x="63.623047"/>
      </g>
     </g>
    </g>
    <g id="xtick_9">
     <g id="line2d_9">
      <g>
       <use xlink:href="#m3558c71b3e" x="1296" y="384.48" style="stroke: #000000; stroke-width: 0.8"/>
      </g>
     </g>
     <g id="text_9">
      <!-- 20 -->
      <g transform="translate(1289.6375 399.078438) scale(0.1 -0.1)">
       <defs>
        <path id="DejaVuSans-30" d="M 2034 4250 
Q 1547 4250 1301 3770 
Q 1056 3291 1056 2328 
Q 1056 1369 1301 889 
Q 1547 409 2034 409 
Q 2525 409 2770 889 
Q 3016 1369 3016 2328 
Q 3016 3291 2770 3770 
Q 2525 4250 2034 4250 
z
M 2034 4750 
Q 2819 4750 3233 4129 
Q 3647 3509 3647 2328 
Q 3647 1150 3233 529 
Q 2819 -91 2034 -91 
Q 1250 -91 836 529 
Q 422 1150 422 2328 
Q 422 3509 836 4129 
Q 1250 4750 2034 4750 
z
" transform="scale(0.015625)"/>
       </defs>
       <use xlink:href="#DejaVuSans-32"/>
       <use xlink:href="#DejaVuSans-30" x="63.623047"/>
      </g>
     </g>
    </g>
    <g id="text_10">
     <!-- mL -->
     <g transform="translate(730.34375 412.756563) scale(0.1 -0.1)">
      <defs>
       <path id="DejaVuSans-6d" d="M 3328 2828 
Q 3544 3216 3844 3400 
Q 4144 3584 4550 3584 
Q 5097 3584 5394 3201 
Q 5691 2819 5691 2113 
L 5691 0 
L 5113 0 
L 5113 2094 
Q 5113 2597 4934 2840 
Q 4756 3084 4391 3084 
Q 3944 3084 3684 2787 
Q 3425 2491 3425 1978 
L 3425 0 
L 2847 0 
L 2847 2094 
Q 2847 2600 2669 2842 
Q 2491 3084 2119 3084 
Q 1678 3084 1418 2786 
Q 1159 2488 1159 1978 
L 1159 0 
L 581 0 
L 581 3500 
L 1159 3500 
L 1159 2956 
Q 1356 3278 1631 3431 
Q 1906 3584 2284 3584 
Q 2666 3584 2933 3390 
Q 3200 3197 3328 2828 
z
" transform="scale(0.015625)"/>
       <path id="DejaVuSans-4c" d="M 628 4666 
L 1259 4666 
L 1259 531 
L 3531 531 
L 3531 0 
L 628 0 
L 628 4666 
z
" transform="scale(0.015625)"/>
      </defs>
      <use xlink:href="#DejaVuSans-6d"/>
      <use xlink:href="#DejaVuSans-4c" x="97.412109"/>
     </g>
    </g>
   </g>
   <g id="matplotlib.axis_2">
    <g id="ytick_1">
     <g id="line2d_10">
      <defs>
       <path id="m11a7181f30" d="M 0 0 
L -3.5 0 
" style="stroke: #000000; stroke-width: 0.8"/>
      </defs>
      <g>
       <use xlink:href="#m11a7181f30" x="180" y="384.48" style="stroke: #000000; stroke-width: 0.8"/>
      </g>
     </g>
     <g id="text_11">
      <!-- 0 -->
      <g transform="translate(166.6375 388.279219) scale(0.1 -0.1)">
       <use xlink:href="#DejaVuSans-30"/>
      </g>
     </g>
    </g>
    <g id="ytick_2">
     <g id="line2d_11">
      <g>
       <use xlink:href="#m11a7181f30" x="180" y="328.082584" style="stroke: #000000; stroke-width: 0.8"/>
      </g>
     </g>
     <g id="text_12">
      <!-- 20 -->
      <g transform="translate(160.275 331.881803) scale(0.1 -0.1)">
       <use xlink:href="#DejaVuSans-32"/>
       <use xlink:href="#DejaVuSans-30" x="63.623047"/>
      </g>
     </g>
    </g>
    <g id="ytick_3">
     <g id="line2d_12">
      <g>
       <use xlink:href="#m11a7181f30" x="180" y="271.685168" style="stroke: #000000; stroke-width: 0.8"/>
      </g>
     </g>
     <g id="text_13">
      <!-- 40 -->
      <g transform="translate(160.275 275.484387) scale(0.1 -0.1)">
       <use xlink:href="#DejaVuSans-34"/>
       <use xlink:href="#DejaVuSans-30" x="63.623047"/>
      </g>
     </g>
    </g>
    <g id="ytick_4">
     <g id="line2d_13">
      <g>
       <use xlink:href="#m11a7181f30" x="180" y="215.287752" style="stroke: #000000; stroke-width: 0.8"/>
      </g>
     </g>
     <g id="text_14">
      <!-- 60 -->
      <g transform="translate(160.275 219.086971) scale(0.1 -0.1)">
       <use xlink:href="#DejaVuSans-36"/>
       <use xlink:href="#DejaVuSans-30" x="63.623047"/>
      </g>
     </g>
    </g>
    <g id="ytick_5">
     <g id="line2d_14">
      <g>
       <use xlink:href="#m11a7181f30" x="180" y="158.890337" style="stroke: #000000; stroke-width: 0.8"/>
      </g>
     </g>
     <g id="text_15">
      <!-- 80 -->
      <g transform="translate(160.275 162.689555) scale(0.1 -0.1)">
       <use xlink:href="#DejaVuSans-38"/>
       <use xlink:href="#DejaVuSans-30" x="63.623047"/>
      </g>
     </g>
    </g>
    <g id="ytick_6">
     <g id="line2d_15">
      <g>
       <use xlink:href="#m11a7181f30" x="180" y="102.492921" style="stroke: #000000; stroke-width: 0.8"/>
      </g>
     </g>
     <g id="text_16">
      <!-- 100 -->
      <g transform="translate(153.9125 106.292139) scale(0.1 -0.1)">
       <use xlink:href="#DejaVuSans-31"/>
       <use xlink:href="#DejaVuSans-30" x="63.623047"/>
       <use xlink:href="#DejaVuSans-30" x="127.246094"/>
      </g>
     </g>
    </g>
    <g id="text_17">
     <!-- A 280 -->
     <g transform="translate(147.832812 232.713125) rotate(-90) scale(0.1 -0.1)">
      <defs>
       <path id="DejaVuSans-41" d="M 2188 4044 
L 1331 1722 
L 3047 1722 
L 2188 4044 
z
M 1831 4666 
L 2547 4666 
L 4325 0 
L 3669 0 
L 3244 1197 
L 1141 1197 
L 716 0 
L 50 0 
L 1831 4666 
z
" transform="scale(0.015625)"/>
       <path id="DejaVuSans-20" transform="scale(0.015625)"/>
      </defs>
      <use xlink:href="#DejaVuSans-41"/>
      <use xlink:href="#DejaVuSans-20" x="68.408203"/>
      <use xlink:href="#DejaVuSans-32" x="100.195312"/>
      <use xlink:href="#DejaVuSans-38" x="163.818359"/>
      <use xlink:href="#DejaVuSans-30" x="227.441406"/>
     </g>
    </g>
   </g>
   <g id="line2d_16">
    <path d="M 180.290021 380.437786 
L 199.731299 380.029609 
L 216.742626 379.598259 
L 238.209304 378.995698 
L 254.410556 378.488068 
L 289.648256 377.180265 
L 309.089813 376.332894 
L 343.517576 374.561981 
L 373.894816 372.677752 
L 413.992836 369.693421 
L 460.166499 365.652281 
L 492.568861 362.444041 
L 507.554928 360.700613 
L 518.085923 359.26077 
L 532.66716 356.858565 
L 541.982691 355.002173 
L 551.298501 352.835418 
L 558.58905 350.866328 
L 564.259585 349.165021 
L 573.575117 346.023079 
L 580.460697 343.414205 
L 589.371539 339.732113 
L 595.041795 337.216495 
L 605.977758 332.146421 
L 621.773901 324.554954 
L 635.545062 317.656126 
L 642.025395 314.027925 
L 646.480746 311.257261 
L 650.12602 308.705433 
L 653.771295 305.875763 
L 657.011462 303.018174 
L 659.846799 300.22774 
L 662.682137 297.157532 
L 665.517474 293.662796 
L 668.352393 289.817293 
L 670.782762 286.148365 
L 673.617821 281.42075 
L 676.453158 276.258401 
L 679.288356 270.498677 
L 682.123694 264.164508 
L 685.363999 256.323121 
L 688.198919 248.764649 
L 691.844193 238.401348 
L 695.084499 228.359365 
L 699.53985 213.599363 
L 704.400309 196.37365 
L 710.880782 172.466086 
L 718.17133 145.389864 
L 721.816466 132.491978 
L 725.866988 118.683384 
L 728.297077 111.023098 
L 731.132276 102.589197 
L 733.562644 95.929415 
L 735.587766 90.958908 
L 738.017856 85.433317 
L 740.042978 81.329173 
L 741.662991 78.389449 
L 743.283144 75.87499 
L 744.903297 73.641331 
L 746.52345 71.745396 
L 748.143603 70.198201 
L 749.358787 69.28414 
L 750.573972 68.599653 
L 752.193986 67.969835 
L 753.408891 67.727673 
L 754.624075 67.685722 
L 755.83926 67.830167 
L 757.054445 68.184802 
L 758.26935 68.739237 
L 759.484534 69.498763 
L 760.699719 70.465124 
L 762.319733 72.047602 
L 763.939885 73.985296 
L 765.965007 76.836876 
L 767.990129 80.218477 
L 770.01525 84.037538 
L 772.445619 89.166068 
L 774.470601 93.948845 
L 776.90097 100.213241 
L 780.141276 109.255732 
L 782.976334 117.877795 
L 787.431685 132.310226 
L 791.07696 144.902661 
L 799.582554 175.521512 
L 809.303333 210.617429 
L 812.948607 223.253611 
L 816.998989 236.835082 
L 823.88457 258.444812 
L 829.149858 273.373526 
L 832.390164 281.842411 
L 836.035439 290.786398 
L 838.870636 297.243414 
L 843.326127 306.487703 
L 846.161185 311.903708 
L 849.401352 317.535461 
L 852.23669 322.093968 
L 855.072027 326.231818 
L 858.312193 330.608413 
L 861.147252 334.094645 
L 864.792526 338.113654 
L 868.032833 341.322182 
L 870.868031 343.81576 
L 874.108336 346.426016 
L 876.943674 348.48343 
L 881.398746 351.381121 
L 884.639052 353.202326 
L 889.094542 355.450403 
L 893.144925 357.235305 
L 897.600136 358.969994 
L 901.245411 360.229591 
L 906.10573 361.755315 
L 913.396419 363.70337 
L 919.066815 365.006091 
L 925.142319 366.234689 
L 931.622931 367.34415 
L 938.91334 368.323195 
L 944.583876 368.876753 
L 951.469456 369.298552 
L 957.139713 369.407855 
L 963.215356 369.261766 
L 968.075676 368.91995 
L 972.936135 368.39738 
L 977.796454 367.649584 
L 983.061882 366.614094 
L 988.32717 365.359813 
L 993.187629 364.054455 
L 1012.628907 358.667732 
L 1019.919596 357.035235 
L 1028.830297 355.399874 
L 1040.981305 353.119664 
L 1053.132174 350.704989 
L 1057.587664 349.965235 
L 1062.042737 349.390958 
L 1066.498227 349.022773 
L 1070.54847 348.87383 
L 1074.598852 348.973428 
L 1078.244127 349.260815 
L 1082.29437 349.82976 
L 1086.749721 350.701461 
L 1092.015148 351.972817 
L 1114.696872 357.660497 
L 1124.012821 359.82911 
L 1130.898262 361.641508 
L 1134.543537 362.797574 
L 1140.213794 364.860817 
L 1146.289298 367.063553 
L 1149.934572 368.163853 
L 1153.174878 368.904133 
L 1157.630229 369.636586 
L 1163.300625 370.35569 
L 1173.426372 371.645132 
L 1179.501876 372.762286 
L 1185.172272 374.055166 
L 1192.057713 375.86902 
L 1202.183739 378.491201 
L 1207.449167 379.626061 
L 1211.904238 380.34949 
L 1218.384851 381.082535 
L 1224.865323 381.529459 
L 1229.725782 381.681295 
L 1236.206254 381.691168 
L 1241.87665 381.555515 
L 1247.547186 381.246691 
L 1254.837596 380.618257 
L 1260.50827 379.911192 
L 1265.773559 379.053164 
L 1272.25417 377.697514 
L 1277.519458 376.352464 
L 1283.595102 374.471791 
L 1289.265359 372.46638 
L 1295.745831 369.982421 
L 1295.745831 369.982421 
" clip-path="url(#pfc97e3e212)" style="fill: none; stroke: #000000; stroke-width: 1.5; stroke-linecap: square"/>
   </g>
   <g id="patch_3">
    <path d="M 180 384.48 
L 180 51.84 
" style="fill: none; stroke: #000000; stroke-width: 0.8; stroke-linejoin: miter; stroke-linecap: square"/>
   </g>
   <g id="patch_4">
    <path d="M 1296 384.48 
L 1296 51.84 
" style="fill: none; stroke: #000000; stroke-width: 0.8; stroke-linejoin: miter; stroke-linecap: square"/>
   </g>
   <g id="patch_5">
    <path d="M 180 384.48 
L 1296 384.48 
" style="fill: none; stroke: #000000; stroke-width: 0.8; stroke-linejoin: miter; stroke-linecap: square"/>
   </g>
   <g id="patch_6">
    <path d="M 180 51.84 
L 1296 51.84 
" style="fill: none; stroke: #000000; stroke-width: 0.8; stroke-linejoin: miter; stroke-linecap: square"/>
   </g>
   <g id="legend_1">
    <g id="patch_7">
     <path d="M 1285 64.84 
L 1289 64.84 
Q 1291 64.84 1291 62.84 
L 1291 58.84 
Q 1291 56.84 1289 56.84 
L 1285 56.84 
Q 1283 56.84 1283 58.84 
L 1283 62.84 
Q 1283 64.84 1285 64.84 
z
" style="fill: #ffffff; opacity: 0.8; stroke: #cccccc; stroke-linejoin: miter"/>
    </g>
   </g>
  </g>
 </g>
 <defs>
  <clipPath id="pfc97e3e212">
   <rect x="180" y="51.84" width="1116" height="332.64"/>
  </clipPath>
 </defs>
</svg>
